<mxfile host="app.diagrams.net" modified="2024-03-29T13:29:54.231Z" agent="Mozilla/5.0 (X11; Linux x86_64) AppleWebKit/537.36 (KHTML, like Gecko) Chrome/122.0.0.0 Safari/537.36 Edg/122.0.0.0" version="24.2.1" etag="b1r7FcX9sXv7KntfGM81" type="github">
  <diagram name="Page-1" id="2107l5f1wCBKoNJ5A107">
    <mxGraphModel>
      <root>
        <mxCell id="0" />
        <mxCell id="1" parent="0" />
      </root>
    </mxGraphModel>
  </diagram>
</mxfile>
